<?xml version="1.0" encoding="utf-8"?>
<!-- Generator: Adobe Illustrator 19.2.1, SVG Export Plug-In . SVG Version: 6.00 Build 0)  -->
<svg version="1.1" id="layer" xmlns="http://www.w3.org/2000/svg" xmlns:xlink="http://www.w3.org/1999/xlink" x="0px" y="0px"
	 viewBox="0 0 652 652" style="enable-background:new 0 0 652 652;" xml:space="preserve">
<style type="text/css">
	.st0{fill:#008755;}
</style>
<path class="st0" d="M43,361.5H30.9v33.7h11.9c11.3,0,18.8-7.7,18.8-17S54.3,361.5,43,361.5 M43.1,388.6h-4.6v-20.3h4.6
	c6.3,0,10.8,4.3,10.8,10.2S49.5,388.6,43.1,388.6"/>
<path class="st0" d="M88.4,381.3c0,4.7-2.9,7.4-6.8,7.4s-6.9-2.8-6.9-7.4v-19.7H67v20c0,8.6,5.7,14.2,14.4,14.2s14.6-5.8,14.6-14.5
	v-19.7h-7.5V381.3L88.4,381.3z"/>
<path class="st0" d="M125,377.6c2.7-1.5,4.4-4.3,4.4-7.4c0-5.6-4.9-8.7-10.7-8.7h-15.1v33.7h16c6.1,0,11.3-3.6,11.3-9.4
	C130.8,382.1,128.5,378.8,125,377.6 M117.1,375.1h-5.9v-7.6h5.9c3,0,4.6,1.8,4.6,3.8C121.7,373.4,120.1,375.1,117.1,375.1
	 M111.2,380.7h7c3,0,5,1.7,5,4.2c0,2.3-1.7,4.3-5,4.3h-7V380.7L111.2,380.7z"/>
<path class="st0" d="M153.6,361.5h-7.5l-13.7,33.7h8l2.7-7h13.1l2.7,7h8.4l-13.6-33.6L153.6,361.5z M154.1,382.1h-8.8l4.4-11.5
	L154.1,382.1z"/>
<rect x="171.4" y="361.5" class="st0" width="7.8" height="33.7"/>
<path class="st0" d="M213.9,361.5h-14.6v33.7h7.7v-10.6h6.7c8,0,12.9-5.3,12.9-11.7C226.5,365.8,221.1,361.5,213.9,361.5
	 M206.9,368.1h6.2c3.7,0,5.8,2.3,5.8,5.1s-2.1,5.1-5.8,5.1h-6.2L206.9,368.1L206.9,368.1z"/>
<path class="st0" d="M248.3,361.1c-10,0-17.8,7.6-17.8,17.5c0,9.7,7.4,17.2,17.6,17.2c10,0,17.8-7.6,17.8-17.4
	C265.9,368.6,258.5,361.1,248.3,361.1 M248.2,388.7c-5.9,0-10.1-4.4-10.1-10.3c0-5.7,4.1-10.3,10.1-10.3c5.8,0,10.1,4.4,10.1,10.3
	C258.2,384.2,254,388.7,248.2,388.7"/>
<path class="st0" d="M339.9,385c-1.9,2.4-4.8,3.8-7.8,3.7c-5.8,0-10.1-4.3-10.1-10.3s4.2-10.3,10.1-10.3c2.9-0.1,5.7,1.2,7.6,3.4
	l0.1,0.1l5.6-5l-0.1-0.1c-3.4-3.7-8.1-5.7-13.1-5.6c-10,0-17.8,7.7-17.8,17.5s7.6,17.2,17.6,17.2c5.2,0.1,10.1-2.1,13.5-6l0.1-0.1
	l-5.6-4.8L339.9,385z"/>
<polygon class="st0" points="279.7,361.5 272,361.5 272,395.3 295.9,395.3 295.9,388.4 279.7,388.4 "/>
<rect x="300.4" y="361.5" class="st0" width="7.8" height="33.7"/>
<polygon class="st0" points="357.9,388.6 357.9,381.1 372.8,381.1 372.8,374.8 357.9,374.8 357.9,368.2 375.2,368.2 375.2,361.5 
	350.3,361.5 350.3,395.3 375.7,395.3 375.7,388.6 "/>
<path class="st0" d="M216.4,279.7c2.8,0,5-2.2,5-5c0-2.8-2.2-5-5-5s-5,2.2-5,5C211.4,277.4,213.6,279.7,216.4,279.7"/>
<path class="st0" d="M348.3,272.1c2.8,0,5-2.2,5-5c0-2.8-2.2-5-5-5s-5,2.2-5,5C343.3,269.9,345.6,272.1,348.3,272.1"/>
<path class="st0" d="M341.4,283.7c2.8,0,5-2.2,5-5c0-2.8-2.2-5-5-5c-2.8,0-5,2.2-5,5C336.4,281.4,338.6,283.7,341.4,283.7"/>
<path class="st0" d="M350.3,278.7c0,2.8,2.2,5,5,5c2.8,0,5-2.2,5-5c0-2.8-2.2-5-5-5C352.5,273.6,350.3,275.9,350.3,278.7"/>
<path class="st0" d="M368.4,284.9L360,290c2,3.3,7.8,14.6,5.1,30.6h-11.8V290h-9.9v30.6h-7.5V290h-9.9v30.6h-14V286h-9.9v38.9
	c0,8-6.5,14.4-14.5,14.5h-2.5v9.9h2.5c11.3,0,21-7.8,23.7-18.7H373l0.9-3.8C379.2,305,371,289.2,368.4,284.9"/>
<path class="st0" d="M154.6,284.8l-4.4,8.8c12.8,6.4,13.6,19.1,12.6,27h-22v9.9H171l0.9-3.9C177.9,298.9,160.2,287.6,154.6,284.8"/>
<path class="st0" d="M290.6,330.5l2.6-8.8c2.3-8,0.8-16.6-4.1-23.3c-8.7-11.7-25.1-14.1-36.8-5.4c-0.5,0.3-0.9,0.7-1.4,1.1l-8.7,7.4
	v-26.9h-9.8v46h-11.1V286h-10.2c-13.6,0-24.7,11.1-24.7,24.7v19.9h9.9v-19.9c0-8.2,6.6-14.8,14.8-14.8h0.3v34.7L290.6,330.5
	L290.6,330.5z M242.3,314.5l15.1-12.9c6.9-5.9,17.3-5.1,23.2,1.9c0.2,0.3,0.5,0.6,0.7,0.9c3.1,4.2,4.1,9.6,2.6,14.6l-0.5,1.7h-41
	L242.3,314.5L242.3,314.5z"/>
<path class="st0" d="M124.5,336.8c-2.8,0-5,2.2-5,5s2.2,5,5,5c2.8,0,5-2.2,5-5C129.6,339.1,127.3,336.8,124.5,336.8"/>
<path class="st0" d="M71.9,336.8c-2.8,0-5,2.2-5,5s2.2,5,5,5s5-2.2,5-5C76.9,339.1,74.6,336.8,71.9,336.8"/>
<path class="st0" d="M59.2,336.8c-2.8,0-5,2.2-5,5c0,2.8,2.2,5,5,5c2.8,0,5-2.2,5-5C64.3,339.1,62,336.8,59.2,336.8"/>
<path class="st0" d="M204.1,279.7c2.8,0,5-2.2,5-5s-2.2-5-5-5c-2.8,0-5,2.2-5,5C199.1,277.4,201.3,279.7,204.1,279.7"/>
<path class="st0" d="M125,314.6c0,3.3-2.7,6-6,6h-4.5V286h-10.4c-13.3,0-23.8,10.8-23.8,24.7v10H40.8v-1.3c0-10.4,2.5-20.6,7.4-29.8
	l-8.7-4.6c-5.6,10.6-8.5,22.5-8.5,34.5v11.2h59.3v-19.9c0-8.4,6-14.8,13.9-14.8h0.5v34.7H119c8.8,0,15.9-7.1,15.9-15.9V286H125
	V314.6z"/>
<path class="st0" d="M629,342.5c-1.7-0.1-3.5,0-5.1,0.3c1.3-1.4,2.4-2.8,3.4-4.4c3.7-5.8,4.6-12.8,2.7-19.3
	c-1.7,0.3-3.4,0.7-4.9,1.4c0.9-1.6,1.7-3.3,2.3-5c2.3-6.4,1.8-13.5-1.5-19.5c-1.6,0.6-3.1,1.4-4.5,2.4c0.6-1.8,1-3.6,1.2-5.4
	c1-6.8-1-13.6-5.4-18.8c-1.4,1-2.8,2.1-3.9,3.3c0.2-1.8,0.2-3.7,0.1-5.6c-0.5-6.8-3.9-13.1-9.4-17.1c-1.2,1.2-2.3,2.6-3.1,4.1
	c-0.2-1.8-0.6-3.7-1.1-5.4c-1.9-6.5-6.6-11.9-12.7-14.8c-0.9,1.5-1.7,3-2.2,4.6c-0.6-1.8-1.3-3.5-2.2-5.1c-3.2-6-8.9-10.3-15.6-11.8
	c-1.2,3.3-1.6,6.9-1.3,10.4c-0.7-0.6-1.6-1.1-2.5-1.7c-5.8-3.6-12.9-4.4-19.4-2.4c1.2,6.7,5.3,12.5,11.2,16c0.9,0.5,1.8,1,2.6,1.4
	c-3.3,1.3-6.3,3.3-8.6,5.9c3.6,4.3,8.7,7.1,14.3,8c2.7,4.9,7,8.6,12.2,10.6c1.6,5.3,5,9.9,9.7,13c0.4,5.5,2.8,10.8,6.7,14.7
	c-0.8,5.5,0.5,11.1,3.5,15.8c-1.9,5.2-1.9,11,0.1,16.2c-3,4.7-4.1,10.3-3.3,15.8c-3.9,4-6.2,9.2-6.6,14.8c-4.6,3.1-8,7.7-9.6,13
	c-5.2,2-9.5,5.8-12.1,10.7c-5.5,0.9-10.5,3.7-14.1,7.9c-6.7-0.3-13.3,2.2-18,7.1c-3.3,3.3-5.1,6.4-6.1,9.4c-0.9,3-4,4.7-7,3.8
	c-1.8-0.5-3.2-2-3.8-3.8c-0.9-3-2.8-6.2-6.1-9.4c-4.7-4.8-11.3-7.4-18-7.1c-3.6-4.2-8.6-7.1-14-8c-2.6-4.9-6.9-8.7-12.1-10.7
	c-1.5-5.3-4.9-10-9.6-13c-0.4-5.5-2.7-10.8-6.6-14.8c0.8-5.5-0.4-11.1-3.3-15.8c1.9-5.2,2-11,0.1-16.2c3-4.7,4.2-10.3,3.5-15.8
	c3.9-3.9,6.3-9.2,6.7-14.7c4.7-3,8.1-7.6,9.7-13c5.2-2,9.5-5.8,12.2-10.6c5.6-0.9,10.6-3.7,14.3-8c-2.4-2.6-5.3-4.6-8.6-5.9
	c0.9-0.4,1.7-0.9,2.6-1.4c5.9-3.5,9.9-9.3,11.2-16c-6.5-2-13.6-1.1-19.4,2.4c-0.9,0.5-1.7,1.1-2.5,1.7c0.4-3.5,0-7.1-1.2-10.4
	c-6.6,1.5-12.3,5.8-15.6,11.8c-0.9,1.6-1.6,3.3-2.2,5.1c-0.6-1.6-1.3-3.2-2.2-4.6c-6.2,2.9-10.8,8.3-12.7,14.8
	c-0.5,1.8-0.9,3.6-1.1,5.4c-0.9-1.5-1.9-2.8-3.1-4.1c-5.5,4.1-8.9,10.4-9.4,17.2c-0.2,1.8-0.1,3.7,0.1,5.6c-1.2-1.3-2.5-2.4-3.9-3.3
	c-4.5,5.2-6.5,12-5.5,18.7c0.2,1.8,0.6,3.7,1.2,5.4c-1.4-1-2.9-1.8-4.5-2.4c-3.3,6-3.8,13.1-1.5,19.5c0.6,1.8,1.4,3.4,2.3,5
	c-1.6-0.7-3.3-1.1-4.9-1.4c-1.9,6.5-1,13.6,2.7,19.3c1,1.6,2.1,3.1,3.4,4.4c-1.7-0.3-3.4-0.4-5.1-0.3c-0.5,6.8,1.9,13.5,6.7,18.3
	c1.3,1.3,2.7,2.6,4.2,3.6c-1.7,0-3.4,0.3-5.1,0.7c0.9,6.8,4.7,12.8,10.4,16.5c1.5,1,3.2,1.9,4.9,2.7c-1.7,0.4-3.3,1-4.8,1.8
	c2.3,6.4,7.3,11.5,13.7,14c1.7,0.7,3.5,1.2,5.3,1.6c-1.5,0.8-3,1.7-4.3,2.8c3.6,5.8,9.6,9.7,16.3,10.8c1.8,0.3,3.7,0.5,5.5,0.4
	c-1.3,1.1-2.6,2.3-3.6,3.6c4.8,4.9,11.4,7.5,18.2,7.1c1.9-0.1,3.7-0.3,5.5-0.7c-1.1,1.3-2,2.8-2.8,4.3c5.7,3.8,12.7,4.9,19.3,3.1
	c2.9-0.7,5.6-1.9,8.1-3.6c6.8-4.7,15.8-4.7,22.7,0c2.5,1.6,5.2,2.9,8.1,3.6c6.6,1.8,13.6,0.7,19.3-3.1c-0.8-1.5-1.7-3-2.8-4.3
	c1.8,0.4,3.6,0.7,5.5,0.7c6.8,0.4,13.4-2.2,18.2-7.1c-1.1-1.3-2.3-2.6-3.6-3.6c1.9,0,3.7-0.1,5.5-0.4c6.7-1.1,12.7-5,16.3-10.8
	c-1.3-1.1-2.8-2-4.3-2.8c1.8-0.4,3.6-0.9,5.3-1.6c6.4-2.5,11.4-7.6,13.7-14c-1.5-0.8-3.1-1.4-4.8-1.8c1.7-0.7,3.3-1.6,4.9-2.7
	c5.7-3.7,9.5-9.8,10.4-16.5c-1.7-0.4-3.4-0.7-5.1-0.7c1.5-1.1,2.9-2.3,4.2-3.6C627,355.9,629.5,349.3,629,342.5 M479.5,393.5
	c4,1.5,7.5,4.3,9.8,7.9c2.9,4.6,3.9,8.6,3.2,12.2c-3.6-0.8-6.8-3.4-9.7-8C480.4,402,479.3,397.7,479.5,393.5 M466.4,383.2
	c3.6,2.3,6.4,5.8,7.8,9.8c1.9,5.1,2,9.2,0.6,12.6c-3.3-1.6-5.9-4.8-7.8-9.8C465.4,391.8,465.2,387.4,466.4,383.2 M455.6,370.5
	c3,3.1,5,7,5.6,11.3c0.8,5.4,0,9.4-2.1,12.4c-2.9-2.2-4.8-5.9-5.6-11.3C452.9,378.6,453.6,374.3,455.6,370.5 M447.8,355.8
	c2.3,3.6,3.4,7.9,3.1,12.2c-0.4,5.4-2,9.2-4.7,11.7c-2.4-2.8-3.5-6.8-3.1-12.2C443.4,363.2,445,359.1,447.8,355.8 M433.2,331.8
	c2-3.8,5.2-6.9,9.1-8.7c0.6,4.3-0.2,8.6-2.2,12.4c-2.6,4.8-5.6,7.6-9.1,8.7C430,340.6,430.6,336.6,433.2,331.8 M429.3,324.8
	c-0.2-3.7,1.3-7.5,4.8-11.7c2.8-3.3,6.5-5.6,10.7-6.6c-0.3,4.3-2,8.4-4.8,11.6C436.5,322.3,432.9,324.4,429.3,324.8 M436.3,350.1
	c1.2-4.1,3.6-7.8,7-10.4c1.5,4,1.7,8.4,0.5,12.6c-1.5,5.2-3.9,8.6-7,10.4C435,359.5,434.8,355.3,436.3,350.1 M443.5,301.3
	c-4.3,3.3-8.2,4.6-11.9,4.2c0.5-3.6,2.8-7.1,7.1-10.4c3.4-2.6,7.5-4.1,11.8-4.2C449.4,295.1,446.9,298.7,443.5,301.3 M485.5,256.1
	c-3.4,2.6-7.6,4.1-11.9,4.1c-5.4,0.1-9.4-1.2-12-3.7c2.6-2.6,6.5-4,11.9-4.1C477.7,252.4,482,253.6,485.5,256.1 M479.2,238.5
	c3.7-2.2,8-3.2,12.2-2.8c-1.6,4-4.5,7.3-8.2,9.5c-4.7,2.8-8.7,3.7-12.3,2.8C471.9,244.5,474.6,241.3,479.2,238.5 M461.4,240.1
	c2.1-3.8,5.3-6.8,9.2-8.6c0.6,4.3-0.3,8.6-2.4,12.3c-2.6,4.8-5.7,7.5-9.2,8.6C458.1,248.9,458.8,244.8,461.4,240.1 M458.9,264.1
	c4.2-1,8.6-0.6,12.5,1.1c-2.8,3.3-6.6,5.6-10.7,6.5c-5.3,1.2-9.4,0.8-12.5-1C450.1,267.6,453.6,265.4,458.9,264.1 M444.6,254.5
	c1.2-4.1,3.7-7.7,7.2-10.3c1.5,4,1.6,8.5,0.3,12.6c-1.6,5.2-4,8.6-7.2,10.3C443.2,263.9,443,259.8,444.6,254.5 M447.2,278.5
	c3.9-1.9,8.3-2.4,12.5-1.6c-2,3.8-5.2,6.8-9.1,8.6c-4.9,2.3-9,2.8-12.5,1.6C439.3,283.8,442.3,280.9,447.2,278.5 M431.1,272.2
	c0.3-4.3,2-8.4,4.8-11.6c2.3,3.7,3.3,7.9,2.9,12.2c-0.4,5.4-2.1,9.2-4.8,11.6C431.7,281.6,430.7,277.6,431.1,272.2 M424,280
	c3,3.1,4.9,7.1,5.4,11.3c0.7,5.4-0.1,9.4-2.3,12.4c-2.9-2.3-4.7-6-5.4-11.3C421.1,288.1,421.9,283.8,424,280 M416.4,301.5
	c3.6,2.4,6.3,5.9,7.7,9.9c1.8,5.1,1.9,9.2,0.4,12.6c-3.3-1.6-5.9-4.8-7.7-9.9C415.3,310,415.2,305.6,416.4,301.5 M413.4,324
	c4,1.6,7.4,4.4,9.6,8.1c2.9,4.6,3.8,8.6,3,12.2c-3.5-0.9-6.8-3.5-9.6-8.1C414.2,332.6,413.1,328.3,413.4,324 M420.9,358
	c-3-3.1-4.9-7-5.5-11.3c4.2,0.7,8.1,2.8,11.1,5.9c3.8,3.9,5.5,7.6,5.5,11.3C428.3,363.7,424.7,361.9,420.9,358 M429.8,378.3
	c-3.6-2.4-6.3-5.8-7.8-9.9c4.3-0.2,8.5,1,12.1,3.4c4.5,3,7,6.3,7.8,9.9C438.3,382.4,434.3,381.4,429.8,378.3 M442.8,396.4
	c-4-1.6-7.4-4.4-9.7-8c4.2-1.1,8.6-0.8,12.5,0.8c5.1,2,8.2,4.7,9.7,8C451.9,398.5,447.8,398.4,442.8,396.4 M459.2,411.3
	c-4.2-0.7-8.2-2.7-11.2-5.8c3.8-2,8.2-2.6,12.4-1.9c5.4,0.9,9,2.9,11.2,5.8C468.7,411.5,464.6,412.2,459.2,411.3 M478.5,422.3
	c-4.3,0.2-8.5-0.9-12.1-3.3c3.3-2.7,7.5-4.3,11.8-4.5c5.4-0.3,9.4,0.9,12.1,3.3C487.8,420.5,483.9,422.1,478.5,422.3 M499.7,429.1
	c-4.1,1.1-8.6,0.9-12.6-0.7c2.7-3.4,6.4-5.8,10.6-6.8c5.3-1.4,9.4-1.1,12.6,0.7C508.3,425.4,504.9,427.7,499.7,429.1 M500.3,411.9
	c-3.1-3-5.1-7-5.7-11.2c4.3,0.7,8.2,2.7,11.2,5.7c3.8,3.9,5.6,7.6,5.7,11.2C507.8,417.5,504.1,415.7,500.3,411.9 M626.8,324
	c0.3,4.3-0.7,8.6-3,12.2c-2.9,4.6-6.1,7.2-9.6,8.1c-0.7-3.6,0.1-7.6,3-12.2C619.4,328.4,622.8,325.6,626.8,324 M623.8,301.4
	c1.2,4.1,1.1,8.5-0.4,12.6c-1.8,5.1-4.4,8.3-7.7,9.9c-1.5-3.3-1.5-7.5,0.4-12.6C617.6,307.3,620.3,303.8,623.8,301.4 M610.8,291.3
	c0.5-4.3,2.5-8.2,5.4-11.3c2.1,3.8,2.9,8.1,2.3,12.3c-0.7,5.4-2.6,9.1-5.4,11.3C610.9,300.8,610.1,296.7,610.8,291.3 M600.2,335.5
	c-2.1-3.8-2.8-8.1-2.2-12.4c3.9,1.8,7.1,4.9,9.1,8.7c2.6,4.8,3.2,8.9,2.2,12.4C605.8,343.1,602.8,340.3,600.2,335.5 M603.6,362.7
	c-3.2-1.8-5.5-5.2-7-10.4c-1.2-4.1-1-8.5,0.5-12.6c3.4,2.6,5.9,6.3,7,10.4C605.5,355.4,605.3,359.5,603.6,362.7 M600.3,318.2
	c-2.8-3.3-4.5-7.4-4.8-11.6c4.2,1,7.9,3.3,10.7,6.6c3.5,4.1,5,8,4.8,11.7C607.4,324.5,603.8,322.4,600.3,318.2 M604.3,260.7
	c2.8,3.2,4.5,7.3,4.8,11.6c0.4,5.4-0.6,9.4-2.9,12.2c-2.7-2.4-4.4-6.2-4.8-11.6C601,268.6,602,264.3,604.3,260.7 M588.6,244.2
	c3.4,2.6,6,6.2,7.2,10.3c1.6,5.2,1.4,9.3-0.3,12.6c-3.2-1.8-5.6-5.1-7.2-10.3C587,252.6,587.1,248.2,588.6,244.2 M569.7,231.5
	c3.9,1.8,7.1,4.8,9.2,8.6c2.6,4.8,3.3,8.8,2.4,12.4c-3.5-1.1-6.6-3.8-9.2-8.6C570,240.1,569.1,235.7,569.7,231.5 M557,245.2
	c-3.7-2.2-6.6-5.5-8.2-9.5c4.3-0.4,8.6,0.6,12.2,2.8c4.7,2.8,7.3,6,8.2,9.5C565.7,248.9,561.7,248,557,245.2 M566.7,260.2
	c-4.3-0.1-8.5-1.5-11.9-4.1c3.5-2.5,7.7-3.8,12-3.7c5.4,0.1,9.3,1.5,11.9,4.1C576.1,259.1,572.1,260.3,566.7,260.2 M568.8,265.2
	c3.9-1.7,8.3-2.1,12.5-1.1c5.3,1.3,8.8,3.5,10.8,6.5c-3.1,1.9-7.3,2.3-12.5,1C575.4,270.7,571.6,268.4,568.8,265.2 M580.6,276.9
	c4.2-0.8,8.6-0.3,12.5,1.6c4.9,2.3,7.8,5.2,9.1,8.7c-3.5,1.2-7.6,0.7-12.5-1.6C585.8,283.8,582.6,280.7,580.6,276.9 M589.7,290.9
	c4.3,0.1,8.5,1.6,11.8,4.2c4.3,3.3,6.6,6.8,7.1,10.4c-3.6,0.4-7.6-0.9-11.9-4.2C593.3,298.7,590.8,295,589.7,290.9 M592.5,355.8
	c2.8,3.3,4.4,7.4,4.7,11.7c0.4,5.4-0.7,9.4-3.1,12.2c-2.7-2.5-4.3-6.3-4.7-11.7C589.1,363.7,590.1,359.4,592.5,355.8 M579.1,381.8
	c0.6-4.3,2.6-8.2,5.6-11.3c2,3.8,2.8,8.1,2.1,12.4c-0.8,5.4-2.7,9-5.6,11.3C579,391.2,578.3,387.1,579.1,381.8 M566.1,393.1
	c1.5-4,4.2-7.5,7.8-9.8c1.2,4.1,1,8.5-0.5,12.6c-1.9,5.1-4.5,8.3-7.8,9.8C564,402.3,564.2,398.2,566.1,393.1 M551,401.4
	c2.3-3.6,5.7-6.4,9.7-8c0.3,4.3-0.8,8.6-3.2,12.2c-2.9,4.6-6.2,7.1-9.7,8C547.1,410,548.1,405.9,551,401.4 M534.5,406.3
	c3-3.1,6.9-5.1,11.2-5.7c-0.6,4.3-2.6,8.2-5.7,11.2c-3.8,3.9-7.5,5.7-11.2,5.7C528.9,413.9,530.7,410.2,534.5,406.3 M540.6,429.1
	c-5.3-1.4-8.7-3.7-10.6-6.8c3.2-1.8,7.3-2.1,12.6-0.7c4.2,1.1,7.9,3.5,10.6,6.8C549.2,430,544.8,430.2,540.6,429.1 M561.8,422.3
	c-5.4-0.3-9.3-1.8-11.8-4.5c2.8-2.4,6.7-3.6,12.1-3.3c4.3,0.2,8.4,1.7,11.8,4.5C570.4,421.4,566.1,422.6,561.8,422.3 M581,411.3
	c-5.4,0.9-9.4,0.2-12.4-1.9c2.2-2.9,5.8-4.9,11.2-5.8c4.2-0.7,8.6-0.1,12.4,1.9C589.2,408.5,585.3,410.6,581,411.3 M597.5,396.4
	c-5.1,2-9.2,2.2-12.6,0.8c1.5-3.3,4.6-6,9.7-8c4-1.6,8.4-1.9,12.5-0.8C604.9,392,601.5,394.8,597.5,396.4 M618.3,368.5
	c-1.5,4-4.2,7.5-7.8,9.9c-4.5,3-8.5,4.1-12.1,3.4c0.8-3.6,3.3-6.9,7.8-9.9C609.7,369.5,614,368.3,618.3,368.5 M608.3,363.9
	c0-3.7,1.7-7.4,5.5-11.3c3-3.1,6.9-5.2,11.1-5.9c-0.6,4.3-2.5,8.2-5.5,11.3C615.6,361.9,611.9,363.8,608.3,363.9"/>
<path class="st0" d="M458.6,338.5v2.8c3.5,6.8,7.5,13.4,11.9,19.7h-9.9c0,0,2,4.1,8,4.1h102.9c6.1,0,8-4.1,8-4.1h-9
	c4.6-6.8,8.7-13.8,12.4-21.1h4.9v-7.8h-26.8c-28.2-22.9-34.2-62-17.8-91.3C496.4,250.1,461.2,290.9,458.6,338.5 M460.7,338.6
	c13.9-8.6,29.8-13.6,46.1-14.5v14.5H460.7L460.7,338.6z M558.8,335.4l-2.3,3.1h-43.2v-14.6C529.1,324,544.7,328,558.8,335.4
	 M549.9,326.9c-28.3-11-60-9-86.6,5.5c5-40.5,33.6-74.1,72.7-85.6C524.8,273.9,530.3,305.1,549.9,326.9"/>
<path class="st0" d="M515.6,399.2h9.1c6.1,0,8-4.1,8-4.1h-25.2C507.5,395.1,509.5,399.2,515.6,399.2"/>
<path class="st0" d="M551.1,386.6h-61.9c0,0,2,4.1,8,4.1h45.8C549.1,390.6,551.1,386.6,551.1,386.6"/>
<path class="st0" d="M565.1,378h-89.9c0,0,2,4.1,8,4.1H557C563.1,382.1,565.1,378,565.1,378"/>
<path class="st0" d="M573.6,369.5H466.7c0,0,2,4.1,8,4.1h90.9C571.7,373.5,573.6,369.5,573.6,369.5"/>
</svg>
